<svg width="1980" height="7221" viewBox="0 0 1980 7221" fill="none" xmlns="http://www.w3.org/2000/svg">
<path fill-rule="evenodd" clip-rule="evenodd" d="M1114.13 0.0119831C1114.06 0.213401 1113.65 2.19096 1113.21 4.40657C1109.49 23.3226 1105.31 31.4867 1096.66 36.7107C1091.82 39.6357 1084.1 42.1189 1073.41 44.1922C1071.19 44.6219 1069.22 45.0342 1069.01 45.1085C1068.81 45.1827 1070.7 45.6568 1073.21 46.1619C1088.84 49.3109 1096.46 52.4064 1101.83 57.7795C1106.89 62.8372 1110.25 71.0829 1113.09 85.3882C1113.57 87.7789 1114.02 90.0094 1114.1 90.3451C1114.19 90.7464 1114.6 89.2 1115.29 85.8284C1118.49 70.1144 1121.33 63.1582 1126.75 57.7314C1132.16 52.3249 1138.91 49.5631 1154.72 46.2808C1157.49 45.7071 1159.58 45.1758 1159.38 45.1002C1159.18 45.0245 1156.98 44.5623 1154.5 44.0728C1140.07 41.2322 1131.9 37.9016 1126.75 32.7604C1121.51 27.5379 1118.52 20.294 1115.42 5.26107C1114.78 2.17265 1114.2 -0.189435 1114.13 0.0119831ZM1163.91 64.9542C1161.26 77.5114 1159.87 81.1833 1156.41 84.8431C1153.08 88.3746 1148.85 90.1712 1138.88 92.296C1136.93 92.7096 1135.31 93.0829 1135.27 93.1256C1135.23 93.1684 1136.7 93.4996 1138.55 93.8617C1147.52 95.6164 1152.7 97.7153 1156 100.922C1159.37 104.202 1161.33 108.801 1163.18 117.791C1163.65 120.069 1164.06 121.963 1164.1 122C1164.14 122.036 1164.58 120.068 1165.09 117.626C1167.14 107.738 1169.67 102.505 1173.85 99.5437C1177.27 97.1147 1181.4 95.592 1188.62 94.0954C1191.07 93.5893 1193.04 93.1456 1193 93.1093C1192.96 93.0731 1191.07 92.6593 1188.79 92.1901C1179.8 90.3385 1175.2 88.3812 1171.91 85.012C1168.73 81.7466 1166.76 76.9426 1164.99 68.2127C1164.1 63.8008 1164.14 63.9041 1163.91 64.9542Z" fill="#FA7F00"/>
<path fill-rule="evenodd" clip-rule="evenodd" d="M1599.66 836.591C1594.99 839.112 1591.04 841.288 1590.89 841.425C1590.63 841.662 1590.61 842.156 1590.61 851.279V860.883L1591.1 861.243C1591.98 861.888 1608.21 870.534 1608.54 870.534C1608.88 870.534 1625.1 861.886 1625.96 861.246L1626.45 860.883V851.263V841.643L1625.96 841.283C1625.03 840.598 1608.84 831.993 1608.5 832C1608.31 832.004 1604.33 834.07 1599.66 836.591ZM1615.5 838.467C1619.28 840.495 1622.37 842.201 1622.38 842.256C1622.38 842.312 1621.68 842.734 1620.82 843.194C1619.96 843.654 1619.17 844.14 1619.06 844.274C1618.95 844.407 1618.86 844.756 1618.86 845.049C1618.86 845.676 1619.46 846.295 1620.07 846.295C1620.28 846.295 1621.22 845.883 1622.17 845.379L1623.89 844.462L1623.85 852.008L1623.81 859.555L1616.89 863.293L1609.96 867.032L1609.88 864.756C1609.8 862.282 1609.71 861.952 1608.99 861.654C1608.43 861.425 1607.72 861.657 1607.43 862.161C1607.32 862.353 1607.22 863.384 1607.17 864.747L1607.1 867.015L1600.13 863.265L1593.17 859.515V851.99V844.464L1594.89 845.379C1595.84 845.883 1596.78 846.295 1596.99 846.295C1597.61 846.295 1598.2 845.677 1598.2 845.032C1598.2 844.319 1597.96 844.094 1596.13 843.127C1595.2 842.634 1594.71 842.289 1594.8 842.2C1594.99 842.012 1608.43 834.734 1608.54 834.759C1608.59 834.769 1611.72 836.438 1615.5 838.467ZM1602.58 847.54C1602.04 848.007 1601.98 848.846 1602.46 849.325C1602.63 849.497 1603.74 850.156 1604.93 850.789L1607.1 851.941L1607.18 853.802C1607.25 855.606 1607.27 855.673 1607.68 856.022C1608.21 856.482 1608.85 856.482 1609.38 856.022C1609.79 855.673 1609.8 855.605 1609.88 853.809L1609.96 851.956L1612.13 850.795C1613.32 850.156 1614.43 849.494 1614.6 849.323C1615.37 848.551 1614.64 847.065 1613.58 847.247C1613.33 847.291 1612.11 847.874 1610.87 848.542C1609.64 849.211 1608.58 849.758 1608.52 849.758C1608.47 849.758 1607.41 849.209 1606.18 848.539C1603.56 847.116 1603.19 847.013 1602.58 847.54ZM1575.54 856.822C1575.07 857.292 1575 857.706 1575.28 858.236C1575.37 858.417 1578.69 863.524 1582.65 869.584C1586.62 875.645 1589.86 880.642 1589.86 880.688C1589.86 880.734 1588.83 880.773 1587.56 880.774C1583.97 880.778 1582.47 881.237 1580.9 882.805C1579.84 883.864 1570.35 898.278 1570.13 899.168C1570.02 899.592 1569.98 901.018 1570.01 903.064C1570.05 906.033 1570.08 906.338 1570.38 906.892C1570.77 907.602 1571.51 908.328 1572.24 908.72C1572.75 908.991 1573.94 909 1608.53 909H1644.29L1644.89 908.675C1645.6 908.291 1646.33 907.553 1646.72 906.817C1646.97 906.345 1647 905.912 1647 902.677C1647 899.424 1646.97 899.012 1646.72 898.544C1645.81 896.878 1636.8 883.444 1636.15 882.782C1634.63 881.247 1633.08 880.778 1629.5 880.774C1628.23 880.773 1627.2 880.734 1627.2 880.688C1627.2 880.642 1630.46 875.611 1634.45 869.509C1638.44 863.407 1641.78 858.226 1641.87 857.995C1642.29 856.885 1640.65 855.899 1639.8 856.748C1639.69 856.867 1634.76 864.353 1628.85 873.384L1618.11 889.805H1608.53H1598.94L1588.12 873.254C1581.1 862.51 1577.17 856.647 1576.95 856.542C1576.37 856.282 1576.01 856.355 1575.54 856.822ZM1587.26 883.444C1587.22 883.506 1585.44 887.571 1583.3 892.477L1579.41 901.397L1576.54 901.395C1574.53 901.393 1573.56 901.336 1573.3 901.202C1572.77 900.935 1572.46 900.241 1572.65 899.75C1572.73 899.538 1574.99 896.045 1577.68 891.988C1582.93 884.068 1583.02 883.955 1584.56 883.542C1585.33 883.335 1587.35 883.261 1587.26 883.444ZM1594.31 887.433C1595.78 889.69 1597.17 891.722 1597.41 891.95L1597.84 892.364H1608.53H1619.21L1619.65 891.95C1619.88 891.722 1621.28 889.69 1622.75 887.433L1625.43 883.331H1626.82H1628.22L1628.84 884.724C1629.38 885.953 1629.43 886.134 1629.21 886.267C1628.18 886.912 1627.8 887.305 1627.41 888.098C1626.75 889.438 1626.81 890.124 1627.87 893.232C1629.15 897.032 1629.52 897.373 1632.9 897.978L1634.77 898.311L1635.42 899.798C1635.79 900.617 1636.08 901.311 1636.08 901.341C1636.08 901.372 1623.98 901.397 1609.19 901.397C1583.65 901.397 1582.3 901.384 1582.37 901.134C1582.44 900.857 1589.79 884.051 1590.03 883.594C1590.13 883.399 1590.36 883.331 1590.9 883.331H1591.63L1594.31 887.433ZM1632.43 883.534C1634.04 883.95 1634.09 884.015 1639.34 891.936C1642.01 895.966 1644.27 899.408 1644.36 899.586C1644.63 900.087 1644.4 900.775 1643.86 901.109C1643.44 901.368 1643.14 901.396 1641.14 901.361L1638.9 901.322L1637.82 898.854C1637.23 897.497 1636.6 896.276 1636.44 896.14C1636.25 895.988 1635.28 895.757 1633.89 895.535C1632.09 895.246 1631.59 895.111 1631.33 894.847C1631.13 894.649 1630.69 893.588 1630.23 892.179C1629.27 889.257 1629.29 889.158 1630.85 888.376C1631.44 888.082 1632 887.771 1632.11 887.684C1632.56 887.308 1632.49 886.723 1631.8 885.1C1631.42 884.22 1631.11 883.462 1631.11 883.416C1631.11 883.275 1631.61 883.319 1632.43 883.534ZM1608.53 903.957C1629.67 903.957 1643.73 903.901 1644.03 903.817L1644.52 903.676V904.656C1644.52 905.538 1644.47 905.68 1644.08 906.076L1643.64 906.516H1608.53H1573.42L1572.98 906.076C1572.59 905.68 1572.54 905.538 1572.54 904.656V903.676L1573.03 903.817C1573.33 903.901 1587.39 903.957 1608.53 903.957Z" fill="#AF03FB"/>
<g style="mix-blend-mode:overlay" filter="url(#filter0_f_102_255)">
<path fill-rule="evenodd" clip-rule="evenodd" d="M1199.57 1478.52C1134.14 1536.59 1050.19 1528 967.3 1528.42C863.581 1528.96 739.164 1573.71 674.458 1481.22C607.258 1385.16 652.685 1246.71 689.364 1131.12C724.642 1019.96 774.034 908.58 870.169 864.491C969.668 818.861 1082.35 844.528 1173.41 909.141C1263.58 973.133 1334.3 1076.77 1339.86 1197.79C1345.06 1310.96 1277.97 1408.95 1199.57 1478.52Z" fill="#4D54FD" fill-opacity="0.8"/>
</g>
<g opacity="0.4">
<circle cx="253.581" cy="2290.23" r="7.16646" fill="#FA7F00"/>
<circle r="7.16646" transform="matrix(-0.372877 0.927881 0.927881 0.372877 227.468 2304.66)" fill="#FA7F00"/>
<circle r="7.16646" transform="matrix(0.659993 0.751271 0.751271 -0.659993 227.216 2213.63)" fill="#FA7F00"/>
<circle r="7.16646" transform="matrix(0.0420066 0.999117 0.999117 -0.0420066 294.249 2224.35)" fill="#FA7F00"/>
<circle r="7.16646" transform="matrix(0.0420066 0.999117 0.999117 -0.0420066 329.364 2274.51)" fill="#FA7F00"/>
<circle r="7.16646" transform="matrix(0.0420066 0.999117 0.999117 -0.0420066 264.866 2175.61)" fill="#FA7F00"/>
<circle cx="229.931" cy="2250.81" r="7.16646" fill="#AF03FB"/>
<circle r="7.16646" transform="matrix(-0.372877 0.927881 0.927881 0.372877 199.714 2268.02)" fill="#AF03FB"/>
<circle r="7.16646" transform="matrix(0.659993 0.751271 0.751271 -0.659993 181.997 2221.87)" fill="#AF03FB"/>
<circle r="7.16646" transform="matrix(0.0420066 0.999117 0.999117 -0.0420066 253.875 2202.37)" fill="#AF03FB"/>
<circle r="7.16646" transform="matrix(0.0420066 0.999117 0.999117 -0.0420066 288.99 2252.54)" fill="#AF03FB"/>
<circle r="7.16646" transform="matrix(0.0420066 0.999117 0.999117 -0.0420066 224.492 2153.64)" fill="#AF03FB"/>
<circle cx="260.747" cy="2258.69" r="7.16646" fill="#4D54FD"/>
<circle r="7.16646" transform="matrix(-0.372877 0.927881 0.927881 0.372877 195.538 2299.55)" fill="#4D54FD"/>
<circle r="7.16646" transform="matrix(0.659993 0.751271 0.751271 -0.659993 208.257 2239.82)" fill="#4D54FD"/>
<circle r="7.16646" transform="matrix(0.0420066 0.999117 0.999117 -0.0420066 263.046 2232.83)" fill="#4D54FD"/>
<circle r="7.16646" transform="matrix(0.0420066 0.999117 0.999117 -0.0420066 298.161 2283)" fill="#4D54FD"/>
<circle r="7.16646" transform="matrix(0.0420066 0.999117 0.999117 -0.0420066 233.663 2184.1)" fill="#4D54FD"/>
</g>
<g style="mix-blend-mode:overlay" filter="url(#filter1_f_102_255)">
<path fill-rule="evenodd" clip-rule="evenodd" d="M530.573 5519.52C465.139 5577.59 381.186 5569 298.3 5569.42C194.581 5569.96 70.1637 5614.71 5.45768 5522.22C-61.7418 5426.16 -16.3145 5287.71 20.3639 5172.12C55.6417 5060.96 105.034 4949.58 201.169 4905.49C300.668 4859.86 413.353 4885.53 504.406 4950.14C594.585 5014.13 665.298 5117.77 670.859 5238.79C676.06 5351.96 608.972 5449.95 530.573 5519.52Z" fill="#4D54FD" fill-opacity="0.8"/>
</g>
<g style="mix-blend-mode:overlay" filter="url(#filter2_f_102_255)">
<path fill-rule="evenodd" clip-rule="evenodd" d="M2012.57 4022.52C1947.14 4080.59 1863.19 4072 1780.3 4072.42C1676.58 4072.96 1552.16 4117.71 1487.46 4025.22C1420.26 3929.16 1465.69 3790.71 1502.36 3675.12C1537.64 3563.96 1587.03 3452.58 1683.17 3408.49C1782.67 3362.86 1895.35 3388.53 1986.41 3453.14C2076.58 3517.13 2147.3 3620.77 2152.86 3741.79C2158.06 3854.96 2090.97 3952.95 2012.57 4022.52Z" fill="#4D54FD" fill-opacity="0.9"/>
</g>
<g style="mix-blend-mode:overlay" filter="url(#filter3_f_102_255)">
<path fill-rule="evenodd" clip-rule="evenodd" d="M154.533 1839.11C245.336 1840.41 312.087 1913.26 383.324 1977.55C472.466 2058 605.811 2116.71 605.845 2246.42C605.881 2381.13 484.082 2464.3 383.47 2534.7C286.7 2602.42 177.717 2659.3 68.9916 2622.07C-43.5368 2583.55 -124.671 2473.66 -163.962 2347.28C-202.875 2222.12 -201.382 2078.18 -133.687 1970.16C-70.3819 1869.16 45.7356 1837.56 154.533 1839.11Z" fill="#AF03FB" fill-opacity="0.8"/>
</g>
<g style="mix-blend-mode:overlay" filter="url(#filter4_f_102_255)">
<path fill-rule="evenodd" clip-rule="evenodd" d="M1757.62 5995.42C1869.02 5997.01 1950.91 6086.39 2038.3 6165.26C2147.66 6263.96 2311.25 6335.99 2311.29 6495.12C2311.34 6660.39 2161.91 6762.42 2038.48 6848.79C1919.76 6931.86 1786.06 7001.64 1652.67 6955.98C1514.62 6908.71 1415.09 6773.9 1366.88 6618.86C1319.14 6465.3 1320.97 6288.71 1404.02 6156.2C1481.69 6032.29 1624.14 5993.52 1757.62 5995.42Z" fill="#AF03FB" fill-opacity="0.8"/>
</g>
<circle cx="1881" cy="6010" r="27.5" stroke="#AF03FB" stroke-opacity="0.8" stroke-width="3"/>
<circle cx="1807" cy="2489" r="27.5" stroke="#AF03FB" stroke-opacity="0.8" stroke-width="3"/>
<path fill-rule="evenodd" clip-rule="evenodd" d="M1482.65 1960.18C1483.85 1960.55 1484.94 1961.46 1485.57 1962.65C1485.87 1963.21 1485.9 1963.82 1485.95 1969.38L1486 1975.49L1485.48 1976.02C1484.8 1976.69 1484.18 1976.69 1483.51 1976.02L1483 1975.51V1969.77V1964.03L1482.48 1963.52L1481.97 1963H1476.23H1470.49L1469.98 1962.49C1469.67 1962.18 1469.47 1961.79 1469.47 1961.51C1469.47 1961.23 1469.67 1960.84 1469.98 1960.53L1470.49 1960.02L1476.35 1960.03C1479.57 1960.04 1482.4 1960.11 1482.65 1960.18ZM1412.01 1960.52C1412.69 1961.2 1412.69 1961.82 1412.02 1962.49L1411.51 1963H1405.77H1400.03L1399.52 1963.52L1399 1964.03V1969.77V1975.51L1398.49 1976.02C1397.82 1976.69 1397.2 1976.69 1396.52 1976.02L1396 1975.49L1396.05 1969.38C1396.1 1963.5 1396.12 1963.24 1396.48 1962.57C1396.93 1961.74 1397.79 1960.89 1398.65 1960.43C1399.21 1960.13 1399.82 1960.1 1405.38 1960.05L1411.49 1960L1412.01 1960.52ZM1444.34 1964.7C1451.74 1965.87 1457.64 1969.17 1460.75 1973.87C1462.31 1976.23 1463.34 1979.36 1463.59 1982.48L1463.71 1984.11L1464.61 1984.69C1466.45 1985.88 1467.7 1987.69 1468.16 1989.87C1468.5 1991.46 1468.49 1996.83 1468.15 1999.12C1467.47 2003.68 1465.73 2006.85 1463.1 2008.34C1462.04 2008.94 1461.92 2009.16 1461.91 2010.57C1461.91 2012.03 1461.28 2015.32 1460.61 2017.37C1459.61 2020.4 1458.43 2022.61 1455.83 2026.26C1455.46 2026.78 1455.41 2027.05 1455.41 2028.42C1455.41 2030.15 1455.7 2033.13 1455.93 2033.73C1456.04 2034.02 1456.61 2034.33 1458.25 2034.97C1464.56 2037.43 1470.94 2039.12 1478.08 2040.24C1481.13 2040.72 1482.13 2041.12 1483.57 2042.44C1485.08 2043.82 1485.98 2045.91 1485.98 2048.03C1485.98 2048.84 1485.91 2049.05 1485.47 2049.49L1484.96 2050H1441H1397.04L1396.53 2049.49C1396.09 2049.05 1396.02 2048.84 1396.02 2048.03C1396.02 2045.91 1396.92 2043.82 1398.43 2042.44C1399.91 2041.09 1400.81 2040.74 1404.38 2040.16C1411.67 2038.97 1416.83 2037.59 1423.49 2035.06C1425.37 2034.34 1425.95 2034.04 1426.07 2033.74C1426.3 2033.13 1426.59 2030.15 1426.59 2028.42C1426.59 2027.05 1426.54 2026.78 1426.17 2026.26C1422.34 2020.88 1420.52 2016.38 1420.17 2011.42C1419.99 2008.91 1420.02 2008.97 1418.91 2008.34C1417.43 2007.51 1416.35 2006.29 1415.44 2004.43C1414.56 2002.64 1414.23 2001.51 1413.85 1999.03C1413.51 1996.84 1413.51 1991.45 1413.84 1989.87C1414.3 1987.69 1415.55 1985.88 1417.39 1984.69L1418.29 1984.11L1418.41 1982.48C1418.78 1977.76 1421.06 1973.11 1424.34 1970.37C1427.62 1967.64 1432.06 1965.67 1436.77 1964.87C1438.3 1964.61 1443.08 1964.5 1444.34 1964.7ZM1479.5 1966.51C1480.04 1967.05 1480.13 1967.54 1479.8 1968.16C1479.45 1968.83 1479.09 1968.97 1477.7 1968.97C1476.4 1968.98 1476.33 1968.96 1475.88 1968.42C1475.31 1967.74 1475.38 1966.99 1476.06 1966.39C1476.44 1966.06 1476.72 1965.99 1477.75 1965.99C1478.88 1965.99 1479.02 1966.04 1479.5 1966.51ZM1471.66 1966.2C1472.56 1966.72 1472.73 1967.84 1472.02 1968.55C1471.59 1968.98 1471.57 1968.98 1468.08 1968.98C1466.15 1968.98 1464.45 1968.93 1464.29 1968.87C1463.94 1968.74 1463.49 1967.9 1463.49 1967.39C1463.49 1967.19 1463.72 1966.79 1464.01 1966.51L1464.52 1965.99L1467.91 1966C1470.14 1966 1471.43 1966.07 1471.66 1966.2ZM1417.99 1966.51C1418.28 1966.79 1418.51 1967.19 1418.51 1967.39C1418.51 1967.9 1418.06 1968.74 1417.71 1968.87C1417.55 1968.93 1415.85 1968.98 1413.92 1968.98C1410.43 1968.98 1410.41 1968.98 1409.98 1968.55C1409.5 1968.07 1409.4 1967.16 1409.77 1966.68C1410.24 1966.07 1410.72 1965.99 1414.12 1965.99H1417.48L1417.99 1966.51ZM1405.94 1966.39C1406.62 1966.99 1406.69 1967.74 1406.12 1968.42C1405.67 1968.96 1405.6 1968.98 1404.3 1968.97C1402.91 1968.97 1402.55 1968.83 1402.2 1968.16C1401.87 1967.54 1401.96 1967.05 1402.5 1966.51C1402.98 1966.04 1403.12 1965.99 1404.25 1965.99C1405.28 1965.99 1405.56 1966.06 1405.94 1966.39ZM1436.63 1967.91C1432.8 1968.66 1429.47 1970.09 1426.95 1972.08C1425.18 1973.48 1423.95 1975 1422.98 1976.98C1422.08 1978.83 1421.16 1982.34 1421.58 1982.34C1421.63 1982.34 1422.44 1982.03 1423.38 1981.65C1428.28 1979.71 1433.45 1978.53 1438.75 1978.15C1444.59 1977.73 1452.77 1979.19 1458.79 1981.73C1459.58 1982.06 1460.29 1982.34 1460.37 1982.34C1460.84 1982.34 1459.88 1978.57 1458.94 1976.76C1456.64 1972.34 1452.15 1969.34 1445.83 1968.01C1443.24 1967.46 1439.19 1967.42 1436.63 1967.91ZM1479.12 1972.19C1480.07 1972.67 1480.24 1973.84 1479.48 1974.61C1479.15 1974.94 1478.87 1974.96 1474.06 1974.96C1469.19 1974.96 1468.97 1974.94 1468.52 1974.59C1468.19 1974.33 1468.06 1974.06 1468.06 1973.64C1468.06 1972.03 1468.28 1971.97 1473.98 1971.97C1477.4 1971.97 1478.81 1972.03 1479.12 1972.19ZM1413.15 1972.17C1413.72 1972.48 1413.94 1972.87 1413.94 1973.57C1413.94 1974.07 1413.83 1974.31 1413.48 1974.59C1413.03 1974.94 1412.81 1974.96 1407.94 1974.96C1403.13 1974.96 1402.85 1974.94 1402.52 1974.61C1401.76 1973.84 1401.93 1972.67 1402.88 1972.19C1403.45 1971.9 1412.62 1971.88 1413.15 1972.17ZM1438.54 1981.19C1435.22 1981.38 1430.8 1982.27 1427.03 1983.5C1423.22 1984.75 1419.05 1986.86 1417.96 1988.1C1416.87 1989.35 1416.69 1990.02 1416.61 1993.26C1416.43 2000.23 1417.86 2004.63 1420.7 2005.9C1421.7 2006.34 1423.97 2006.64 1425.25 2006.5C1429.11 2006.08 1432.02 2004.34 1434.39 2001.02C1435.13 1999.98 1436.68 1998.87 1438.05 1998.39C1439.47 1997.89 1442.84 1997.94 1444.2 1998.48C1445.62 1999.04 1447.15 2000.23 1447.89 2001.34C1448.65 2002.48 1450.24 2004.02 1451.5 2004.81C1454.23 2006.54 1458.71 2007.05 1461.27 2005.92C1464.13 2004.65 1465.56 2000.31 1465.39 1993.38C1465.31 1990.01 1465.14 1989.36 1464.04 1988.1C1462.48 1986.32 1456.61 1983.75 1451.1 1982.43C1447.41 1981.54 1442.31 1980.86 1440.65 1981.04C1440.41 1981.07 1439.46 1981.13 1438.54 1981.19ZM1457.87 1988.89C1459.24 1989.35 1460.65 1990.22 1461.38 1991.06C1461.89 1991.65 1461.91 1991.72 1461.91 1993.42C1461.91 1995.31 1461.73 1995.73 1460.81 1995.96C1459.72 1996.24 1458.92 1995.26 1458.92 1993.63C1458.92 1992.84 1458.89 1992.77 1458.18 1992.33C1457.77 1992.08 1457.02 1991.74 1456.53 1991.58C1456.03 1991.42 1455.49 1991.14 1455.33 1990.96C1454.73 1990.29 1455.04 1988.97 1455.87 1988.66C1456.47 1988.43 1456.56 1988.44 1457.87 1988.89ZM1438.44 2001.45C1437.75 2001.81 1436.95 2002.62 1435.73 2004.21C1434.81 2005.4 1432.51 2007.2 1430.88 2007.99C1429.04 2008.89 1426.83 2009.42 1424.73 2009.46L1423.08 2009.49L1423.08 2010.48C1423.08 2011.89 1423.54 2014.33 1424.15 2016.15C1425.38 2019.84 1427.43 2023.2 1430.18 2026.06C1432.85 2028.83 1435.27 2030.51 1438.62 2031.91C1440.88 2032.86 1441.43 2032.82 1444.07 2031.57C1446.34 2030.49 1447.27 2029.92 1449.17 2028.46C1454.63 2024.25 1458.35 2017.46 1458.87 2010.76L1458.98 2009.38L1458.36 2009.49C1457.46 2009.66 1454.51 2009.26 1452.97 2008.76C1449.97 2007.79 1447.42 2005.87 1445.36 2003.05C1444.78 2002.25 1443.84 2001.53 1442.98 2001.21C1441.98 2000.84 1439.35 2000.97 1438.44 2001.45ZM1485.56 2015.99L1486 2016.43L1485.95 2022.63L1485.9 2028.82L1485.42 2029.64C1484.87 2030.56 1484.08 2031.29 1483.17 2031.7C1482.26 2032.12 1471.4 2032.23 1470.46 2031.83C1469.73 2031.53 1469.39 2030.88 1469.56 2030.11C1469.78 2029.11 1469.9 2029.09 1475.92 2029.09C1481.77 2029.09 1482.39 2029.01 1482.81 2028.23C1482.93 2028 1483 2025.92 1483 2022.15V2016.42L1483.43 2015.98C1484.02 2015.39 1484.96 2015.4 1485.56 2015.99ZM1398.57 2015.98L1399 2016.42V2022.15C1399 2025.92 1399.07 2028 1399.19 2028.23C1399.61 2029.01 1400.23 2029.09 1406.08 2029.09C1412.1 2029.09 1412.22 2029.11 1412.44 2030.11C1412.61 2030.88 1412.27 2031.53 1411.54 2031.83C1410.6 2032.23 1399.74 2032.12 1398.83 2031.7C1397.92 2031.29 1397.13 2030.56 1396.58 2029.64L1396.1 2028.82V2022.52V2016.23L1396.52 2015.89C1397.11 2015.41 1398.04 2015.45 1398.57 2015.98ZM1479.12 2017.18C1480.07 2017.66 1480.24 2018.83 1479.48 2019.6C1479.15 2019.93 1478.87 2019.95 1474.06 2019.95C1469.19 2019.95 1468.97 2019.93 1468.52 2019.58C1468.19 2019.32 1468.06 2019.06 1468.06 2018.63C1468.06 2017.02 1468.28 2016.96 1473.98 2016.96C1477.4 2016.96 1478.81 2017.02 1479.12 2017.18ZM1413.15 2017.16C1413.72 2017.47 1413.94 2017.86 1413.94 2018.56C1413.94 2019.06 1413.83 2019.31 1413.48 2019.58C1413.03 2019.93 1412.81 2019.95 1407.94 2019.95C1403.13 2019.95 1402.85 2019.93 1402.52 2019.6C1401.76 2018.83 1401.93 2017.66 1402.88 2017.18C1403.45 2016.89 1412.62 2016.88 1413.15 2017.16ZM1479.09 2023.2C1480.07 2023.62 1480.27 2025.07 1479.43 2025.66C1479 2025.96 1476.67 2026.03 1476.16 2025.75C1475.61 2025.46 1475.36 2024.61 1475.62 2023.97C1476.02 2023.02 1477.77 2022.63 1479.09 2023.2ZM1471.51 2023.1C1472.43 2023.49 1472.72 2024.66 1472.09 2025.46L1471.72 2025.92H1468.04C1464.36 2025.92 1464.35 2025.92 1463.92 2025.49C1463.36 2024.93 1463.36 2024.16 1463.92 2023.52L1464.34 2023.02L1467.74 2022.98C1469.61 2022.96 1471.3 2023.01 1471.51 2023.1ZM1417.41 2023.05C1417.94 2023.16 1418.51 2023.93 1418.51 2024.55C1418.51 2024.86 1418.34 2025.23 1418.08 2025.49C1417.65 2025.92 1417.64 2025.92 1413.96 2025.92H1410.28L1409.91 2025.46C1409.43 2024.85 1409.45 2024.12 1409.97 2023.52L1410.39 2023.02L1413.7 2023C1415.53 2022.98 1417.19 2023.01 1417.41 2023.05ZM1405.61 2023.18C1406.34 2023.5 1406.68 2024.32 1406.38 2025.05C1406.08 2025.79 1405.74 2025.92 1404.2 2025.92C1403.11 2025.92 1402.81 2025.86 1402.52 2025.58C1401.73 2024.79 1401.94 2023.61 1402.95 2023.19C1403.71 2022.87 1404.89 2022.87 1405.61 2023.18ZM1449.2 2032.25C1446.55 2034.02 1442.69 2035.59 1441 2035.59C1438.71 2035.59 1433.5 2033.09 1430.53 2030.57L1429.63 2029.8L1429.43 2031.79C1429.04 2035.66 1428.06 2038.21 1426.22 2040.22C1424.07 2042.57 1422.31 2043.1 1421.68 2041.57C1421.33 2040.75 1421.57 2040.27 1422.83 2039.28C1423.46 2038.78 1423.95 2038.33 1423.9 2038.29C1423.86 2038.25 1422.88 2038.53 1421.74 2038.93C1420.59 2039.33 1418.87 2039.88 1417.91 2040.17C1416.95 2040.46 1416.13 2040.72 1416.1 2040.75C1415.98 2040.87 1416.77 2042.5 1417.53 2043.67C1417.96 2044.34 1418.79 2045.36 1419.38 2045.95L1420.44 2047.01H1441H1461.55L1462.58 2046C1463.14 2045.45 1463.94 2044.49 1464.35 2043.88C1465.12 2042.74 1466.05 2040.9 1465.91 2040.76C1465.87 2040.72 1465.05 2040.46 1464.09 2040.17C1463.13 2039.88 1461.41 2039.33 1460.26 2038.93C1459.12 2038.53 1458.14 2038.25 1458.1 2038.29C1458.05 2038.33 1458.53 2038.77 1459.15 2039.27C1459.78 2039.76 1460.34 2040.29 1460.4 2040.44C1460.77 2041.42 1460.08 2042.44 1459.04 2042.44C1458.32 2042.44 1456.77 2041.37 1455.65 2040.1C1454.18 2038.43 1452.94 2035.32 1452.7 2032.69C1452.63 2032.01 1452.54 2031.08 1452.49 2030.62L1452.39 2029.79L1451.48 2030.56C1450.98 2030.98 1449.96 2031.74 1449.2 2032.25ZM1468.26 2043.01C1467.89 2043.81 1467.22 2045.01 1466.77 2045.67C1466.32 2046.34 1465.95 2046.91 1465.95 2046.95C1465.95 2046.98 1469.76 2047.01 1474.4 2047.01H1482.86L1482.74 2046.53C1482.56 2045.77 1481.83 2044.77 1481.05 2044.21C1480.27 2043.65 1479.85 2043.54 1475.79 2042.88C1474.29 2042.63 1472.28 2042.25 1471.31 2042.02C1470.34 2041.79 1469.41 2041.59 1469.24 2041.58C1469.02 2041.57 1468.75 2041.97 1468.26 2043.01ZM1410.84 2042C1409.79 2042.23 1407.71 2042.63 1406.21 2042.88C1402.13 2043.55 1401.73 2043.65 1400.95 2044.21C1400.17 2044.77 1399.44 2045.77 1399.26 2046.53L1399.14 2047.01H1407.6C1412.24 2047.01 1416.05 2046.98 1416.05 2046.95C1416.05 2046.91 1415.68 2046.34 1415.23 2045.67C1414.78 2045.01 1414.11 2043.81 1413.74 2043.01C1413.37 2042.22 1413 2041.56 1412.91 2041.56C1412.83 2041.56 1411.9 2041.76 1410.84 2042Z" fill="url(#paint0_linear_102_255)" fill-opacity="0.5"/>
<defs>
<filter id="filter0_f_102_255" x="389.972" y="591.393" width="1200.17" height="1198.32" filterUnits="userSpaceOnUse" color-interpolation-filters="sRGB">
<feFlood flood-opacity="0" result="BackgroundImageFix"/>
<feBlend mode="normal" in="SourceGraphic" in2="BackgroundImageFix" result="shape"/>
<feGaussianBlur stdDeviation="125" result="effect1_foregroundBlur_102_255"/>
</filter>
<filter id="filter1_f_102_255" x="-279.028" y="4632.39" width="1200.17" height="1198.32" filterUnits="userSpaceOnUse" color-interpolation-filters="sRGB">
<feFlood flood-opacity="0" result="BackgroundImageFix"/>
<feBlend mode="normal" in="SourceGraphic" in2="BackgroundImageFix" result="shape"/>
<feGaussianBlur stdDeviation="125" result="effect1_foregroundBlur_102_255"/>
</filter>
<filter id="filter2_f_102_255" x="1202.97" y="3135.39" width="1200.17" height="1198.32" filterUnits="userSpaceOnUse" color-interpolation-filters="sRGB">
<feFlood flood-opacity="0" result="BackgroundImageFix"/>
<feBlend mode="normal" in="SourceGraphic" in2="BackgroundImageFix" result="shape"/>
<feGaussianBlur stdDeviation="125" result="effect1_foregroundBlur_102_255"/>
</filter>
<filter id="filter3_f_102_255" x="-439.701" y="1589.05" width="1295.55" height="1294.81" filterUnits="userSpaceOnUse" color-interpolation-filters="sRGB">
<feFlood flood-opacity="0" result="BackgroundImageFix"/>
<feBlend mode="normal" in="SourceGraphic" in2="BackgroundImageFix" result="shape"/>
<feGaussianBlur stdDeviation="125" result="effect1_foregroundBlur_102_255"/>
</filter>
<filter id="filter4_f_102_255" x="1085.31" y="5745.36" width="1475.99" height="1475.09" filterUnits="userSpaceOnUse" color-interpolation-filters="sRGB">
<feFlood flood-opacity="0" result="BackgroundImageFix"/>
<feBlend mode="normal" in="SourceGraphic" in2="BackgroundImageFix" result="shape"/>
<feGaussianBlur stdDeviation="125" result="effect1_foregroundBlur_102_255"/>
</filter>
<linearGradient id="paint0_linear_102_255" x1="1396" y1="1938" x2="1486" y2="2060" gradientUnits="userSpaceOnUse">
<stop stop-color="#FA7F00"/>
<stop offset="0.467282" stop-color="#4D54FD"/>
<stop offset="1" stop-color="#AF03FB"/>
</linearGradient>
</defs>
</svg>
