<svg width="144" height="142" viewBox="0 0 144 142" fill="none" xmlns="http://www.w3.org/2000/svg">
<path fill-rule="evenodd" clip-rule="evenodd" d="M52.4104 0.0139476C52.3301 0.248385 51.85 2.55014 51.3437 5.12895C47.0199 27.1459 42.1623 36.6485 32.124 42.7288C26.5029 46.1334 17.5405 49.0237 5.12233 51.4368C2.54846 51.937 0.251118 52.4169 0.0171298 52.5033C-0.216859 52.5897 1.97412 53.1415 4.88579 53.7295C23.0362 57.3947 31.8943 60.9976 38.1306 67.2516C44.0007 73.1384 47.9053 82.7358 51.2042 99.3863C51.7555 102.169 52.2816 104.765 52.3735 105.156C52.4833 105.623 52.9555 103.823 53.7528 99.8987C57.4688 81.6085 60.7656 73.512 67.07 67.1956C73.3511 60.9027 81.1839 57.6882 99.5476 53.8679C102.757 53.2001 105.191 52.5817 104.957 52.4936C104.723 52.4055 102.171 51.8676 99.2849 51.2979C82.5348 47.9916 73.047 44.115 67.0592 38.131C60.9772 32.0524 57.5116 23.6208 53.9039 6.12354C53.1628 2.52883 52.4907 -0.22049 52.4104 0.0139476ZM110.221 75.6024C107.135 90.2182 105.527 94.4921 101.513 98.7518C97.6396 102.862 92.7307 104.953 81.1467 107.427C78.8922 107.908 77.007 108.342 76.9573 108.392C76.9077 108.442 78.6248 108.827 80.7729 109.249C91.1816 111.291 97.2037 113.734 101.031 117.466C104.945 121.284 107.219 126.638 109.37 137.101C109.915 139.753 110.396 141.957 110.438 141.999C110.48 142.042 110.995 139.751 111.583 136.909C113.964 125.4 116.909 119.309 121.758 115.862C125.736 113.035 130.532 111.263 138.919 109.521C141.755 108.932 144.042 108.415 143.999 108.373C143.957 108.331 141.757 107.849 139.11 107.303C128.667 105.148 123.324 102.87 119.513 98.9484C115.821 95.1477 113.522 89.5561 111.474 79.3951C110.44 74.26 110.48 74.3802 110.221 75.6024Z" fill="#4D54FD"/>
</svg>
