<svg width="124" height="122" viewBox="0 0 124 122" fill="none" xmlns="http://www.w3.org/2000/svg">
<path fill-rule="evenodd" clip-rule="evenodd" d="M45.1312 0.0119831C45.0621 0.213401 44.6486 2.19096 44.2126 4.40657C40.4893 23.3226 36.3064 31.4867 27.6624 36.7107C22.822 39.6357 15.1043 42.1189 4.4109 44.1922C2.19451 44.6219 0.216241 45.0342 0.0147507 45.1085C-0.186739 45.1827 1.69994 45.6568 4.20721 46.1619C19.8367 49.3109 27.4645 52.4064 32.8347 57.7795C37.8895 62.8372 41.2518 71.0829 44.0925 85.3882C44.5672 87.7789 45.0203 90.0094 45.0994 90.3451C45.1939 90.7464 45.6006 89.2 46.2871 85.8284C49.487 70.1144 52.326 63.1582 57.7547 57.7314C63.1634 52.3249 69.9083 49.5631 85.7215 46.2808C88.4852 45.7071 90.5815 45.1758 90.38 45.1002C90.1785 45.0245 87.9804 44.5623 85.4954 44.0728C71.0716 41.2322 62.9016 37.9016 57.7454 32.7604C52.5082 27.5379 49.5239 20.294 46.4173 5.26107C45.7791 2.17265 45.2003 -0.189435 45.1312 0.0119831ZM94.9129 64.9542C92.2552 77.5114 90.8709 81.1833 87.4143 84.8431C84.0786 88.3746 79.8514 90.1712 69.8764 92.296C67.935 92.7096 66.3116 93.0829 66.2688 93.1256C66.2261 93.1684 67.7047 93.4996 69.5545 93.8617C78.5175 95.6164 83.7032 97.7153 86.9988 100.922C90.3692 104.202 92.3272 108.801 94.1795 117.791C94.6489 120.069 95.0628 121.963 95.099 122C95.1354 122.036 95.5791 120.068 96.0854 117.626C98.136 107.738 100.672 102.505 104.847 99.5437C108.273 97.1147 112.402 95.592 119.625 94.0954C122.067 93.5893 124.036 93.1456 123.999 93.1093C123.963 93.0731 122.069 92.6593 119.789 92.1901C110.797 90.3385 106.195 88.3812 102.914 85.012C99.735 81.7466 97.7552 76.9426 95.9919 68.2127C95.1007 63.8008 95.1351 63.9041 94.9129 64.9542Z" fill="#FA7F00"/>
</svg>
