<svg width="77" height="77" viewBox="0 0 77 77" fill="none" xmlns="http://www.w3.org/2000/svg">
<path fill-rule="evenodd" clip-rule="evenodd" d="M29.6581 4.59108C24.986 7.11237 21.0391 9.28754 20.8874 9.42485C20.6251 9.66227 20.6112 10.1562 20.6112 19.2791V28.8834L21.1006 29.2435C21.9769 29.8883 38.2057 38.534 38.5398 38.534C38.877 38.534 55.0951 29.886 55.9577 29.2463L56.4471 28.8834V19.2634V9.64345L55.9577 9.28333C55.0267 8.59832 38.8419 -0.00722194 38.498 4.54872e-06C38.3081 0.00391889 34.3302 2.06994 29.6581 4.59108ZM45.4997 6.4665C49.2785 8.49519 52.3728 10.2006 52.3759 10.2562C52.3791 10.3119 51.6797 10.7339 50.8216 11.1941C49.9636 11.6544 49.1709 12.1402 49.0599 12.2737C48.9491 12.4074 48.8583 12.7563 48.8583 13.0491C48.8583 13.6761 49.4592 14.2952 50.0677 14.2952C50.2764 14.2952 51.2218 13.8827 52.1688 13.3786L53.8902 12.4621L53.8511 20.0085L53.8121 27.555L46.8858 31.2934L39.9596 35.0317L39.8843 32.7555C39.8025 30.2824 39.7069 29.9521 38.9866 29.6539C38.4332 29.4246 37.721 29.6572 37.4318 30.1614C37.322 30.3526 37.2193 31.384 37.174 32.7471L37.0987 35.0147L30.1348 31.2651L23.1709 27.5154V19.9895V12.4636L24.891 13.3794C25.8371 13.8831 26.7819 14.2952 26.9906 14.2952C27.6078 14.2952 28.2 13.6766 28.2 13.0316C28.2 12.3189 27.9555 12.0935 26.1338 11.127C25.2041 10.6338 24.7078 10.2895 24.7974 10.1999C24.9851 10.0121 38.428 2.73433 38.5415 2.75902C38.5897 2.7694 41.7208 4.43782 45.4997 6.4665ZM32.5778 15.54C32.035 16.0068 31.9787 16.8455 32.458 17.3247C32.6301 17.4968 33.7446 18.1559 34.9349 18.7893L37.0987 19.9409L37.1779 21.8016C37.2546 23.6058 37.2696 23.6731 37.6756 24.0222C38.2102 24.4818 38.8481 24.4818 39.3827 24.0222C39.7884 23.6732 39.8037 23.605 39.8804 21.8089L39.9596 19.9558L42.1255 18.7947C43.3167 18.1562 44.4314 17.4938 44.6024 17.3228C45.3738 16.5514 44.6449 15.065 43.5846 15.2473C43.3299 15.2909 42.1099 15.8737 40.8732 16.5423C39.6367 17.2109 38.579 17.7579 38.5227 17.7579C38.4664 17.7579 37.4115 17.2091 36.1784 16.5386C33.5636 15.1162 33.1908 15.0127 32.5778 15.54ZM5.54253 24.8222C5.07305 25.2916 4.99536 25.7055 5.27678 26.2364C5.37269 26.4172 8.69278 31.5239 12.6547 37.5845C16.6167 43.6451 19.8584 48.6416 19.8584 48.6877C19.8584 48.7338 18.8251 48.7728 17.5622 48.7741C13.9706 48.7783 12.4662 49.2367 10.8994 50.8046C9.84058 51.8642 0.353561 66.2783 0.129512 67.1679C0.022757 67.592 -0.0212097 69.0185 0.00965729 71.0636C0.0543768 74.0326 0.0843404 74.3381 0.383826 74.8923C0.767631 75.6021 1.50588 76.3284 2.24157 76.7197C2.75125 76.9908 3.94136 77 38.5291 77H74.2897L74.892 76.6745C75.602 76.2907 76.3283 75.5526 76.7196 74.817C76.9706 74.3452 77 73.9117 77 70.6768C77 67.4245 76.9717 67.0116 76.7168 66.5436C75.8094 64.878 66.8 51.4435 66.1462 50.7816C64.6306 49.2467 63.0788 48.7782 59.4961 48.7741C58.2333 48.7728 57.1999 48.7338 57.1999 48.6877C57.1999 48.6416 60.4645 43.6112 64.4546 37.5092C68.4446 31.4072 71.7805 26.2257 71.8678 25.9949C72.2868 24.885 70.654 23.8987 69.8042 24.7483C69.6859 24.8668 64.7574 32.3528 58.852 41.3841L48.1149 57.8046H38.5293H28.9438L18.1209 41.2537C11.0956 30.5104 7.17457 24.6467 6.946 24.5425C6.37474 24.2823 6.00991 24.3549 5.54253 24.8222ZM17.2554 51.4438C17.2219 51.506 15.4441 55.5709 13.3046 60.4769L9.41476 69.3971L6.54338 69.3949C4.53145 69.3934 3.55937 69.3357 3.29557 69.2023C2.76781 68.9354 2.45764 68.2412 2.6466 67.7498C2.72791 67.538 4.99446 64.045 7.68335 59.9877C12.9316 52.0683 13.0241 51.9547 14.5571 51.542C15.3278 51.3345 17.3542 51.2609 17.2554 51.4438ZM24.305 55.4335C25.7756 57.6899 27.1734 59.7224 27.4111 59.95L27.8434 60.364H38.5291H49.2149L49.6471 59.95C49.8849 59.7224 51.2826 57.6899 52.7533 55.4335L55.4271 51.3309H56.8235H58.2197L58.8372 52.7235C59.3825 53.9532 59.4264 54.1337 59.2141 54.2667C58.1827 54.9121 57.7951 55.3049 57.4071 56.098C56.7515 57.4379 56.8128 58.1238 57.8667 61.2324C59.1543 65.0317 59.5169 65.3733 62.9028 65.9781L64.7655 66.3108L65.4246 67.7983C65.787 68.6165 66.0836 69.3109 66.0836 69.3414C66.0836 69.3721 53.9812 69.3971 39.1891 69.3971C13.6481 69.3971 12.2983 69.3839 12.3676 69.1337C12.4441 68.8573 19.7856 52.051 20.0294 51.5944C20.1338 51.399 20.3589 51.3309 20.9006 51.3309H21.6312L24.305 55.4335ZM62.4335 51.5337C64.0383 51.95 64.0914 52.0147 69.3378 59.9365C72.0062 63.9657 74.2673 67.4079 74.3624 67.5858C74.6309 68.0872 74.4045 68.7749 73.8614 69.1085C73.4384 69.3682 73.1403 69.3959 71.1444 69.3612L68.9026 69.3219L67.8223 66.8543C67.228 65.4971 66.6049 64.2758 66.4378 64.1405C66.2497 63.9881 65.2791 63.7572 63.894 63.535C62.0918 63.2457 61.5901 63.1113 61.3254 62.8466C61.1273 62.6485 60.6917 61.5883 60.2293 60.1786C59.2713 57.2574 59.2874 57.1583 60.8523 56.3756C61.4385 56.0823 62.004 55.7711 62.109 55.684C62.5618 55.3084 62.4913 54.7226 61.7981 53.1001C61.4222 52.2204 61.1148 51.4624 61.1148 51.4158C61.1148 51.2752 61.6064 51.3192 62.4335 51.5337ZM38.5291 71.9565C59.667 71.9565 73.7323 71.901 74.0273 71.8165L74.5156 71.6765V72.6561C74.5156 73.5381 74.4718 73.6796 74.0755 74.0758L73.6353 74.5159H38.5291H3.42295L2.98283 74.0758C2.58653 73.6796 2.54271 73.5381 2.54271 72.6561V71.6765L3.03101 71.8165C3.32598 71.901 17.3913 71.9565 38.5291 71.9565Z" fill="#AF03FB"/>
</svg>
